<svg xmlns="http://www.w3.org/2000/svg" width="44" height="44" viewBox="0 0 44 44">
    <path fill="#FFF" fill-rule="nonzero" d="M6.428 37.572c3.671 3.673 8.321 5.76 13.11 6.3.587.064 1.176.1 1.764.117 5.868.183 11.79-1.941 16.268-6.417 4.175-4.175 6.303-9.608 6.426-15.076.012-.586-.004-1.17-.037-1.757-.298-5.208-2.411-10.331-6.389-14.309C33.59 2.452 28.469.34 23.26.041a22.516 22.516 0 0 0-1.756-.037C16.036.126 10.601 2.255 6.428 6.43 1.952 10.906-.172 16.832.011 22.698c.021.59.054 1.177.12 1.764a21.916 21.916 0 0 0 6.297 13.11zm29.898-1.244c-4.071 4.07-9.46 6.026-14.808 5.903a22.18 22.18 0 0 1 1.632-5.379l2.589 2.59 1.244-1.247-3.011-3.013a24.749 24.749 0 0 1 4.26-5.708l2.488 2.494 1.248-1.246-2.441-2.44A24.274 24.274 0 0 1 35.61 24.4l2.586 2.584 1.244-1.246-2.045-2.044c1.598-.556 3.22-.936 4.826-1.1-.146 4.988-2.098 9.934-5.896 13.734zM21.69 7.99a23.353 23.353 0 0 0 1.485-6.181c4.79.275 9.498 2.216 13.15 5.866 3.652 3.65 5.591 8.36 5.868 13.15a23.217 23.217 0 0 0-6.182 1.485l-2.802-2.8-1.244 1.246 2.3 2.3c-2.101 1.003-4.118 2.343-5.984 3.981l-2.543-2.543-1.246 1.246 2.49 2.492a26.527 26.527 0 0 0-4.303 5.662l-1.924-1.923-1.246 1.246 2.315 2.314c-1.021 2.147-1.727 4.37-2.074 6.588-4.414-.491-8.698-2.411-12.077-5.787A20.149 20.149 0 0 1 1.89 24.257c2.217-.346 4.437-1.052 6.586-2.075l2.313 2.317 1.247-1.247-1.925-1.923a26.599 26.599 0 0 0 5.662-4.304l2.49 2.49 1.247-1.245-2.544-2.545c1.639-1.868 2.976-3.883 3.981-5.984l2.3 2.3 1.247-1.246L21.69 7.99zM7.672 7.674c3.802-3.798 8.746-5.751 13.734-5.896-.164 1.607-.544 3.226-1.098 4.828l-2.046-2.045-1.246 1.246 2.586 2.585a24.31 24.31 0 0 1-3.883 6.083l-2.44-2.44-1.244 1.247 2.49 2.492a24.732 24.732 0 0 1-5.707 4.256l-3.011-3.01-1.246 1.246 2.589 2.587a22.235 22.235 0 0 1-5.38 1.632c-.122-5.349 1.833-10.738 5.902-14.81z"/>
</svg>
