<svg xmlns="http://www.w3.org/2000/svg" width="46" height="46" viewBox="0 0 46 46">
    <path fill="#FFF" fill-rule="nonzero" stroke="#FFF" stroke-width=".5" d="M42.603 13.164c0-.05-.05-.05-.05-.05C38.957 5.906 31.515 1 22.975 1a21.73 21.73 0 0 0-11.936 3.554c-.05.05-.1.05-.2.1-.05 0-.05.05-.05.05-3.996 2.653-7.042 6.608-8.64 11.263-.05.05-.05.1-.05.15C1.399 18.32 1 20.622 1 23.025c0 3.504.849 6.858 2.297 9.811 0 0 0 .05.05.05.05.1.1.15.15.25 3.396 6.558 9.939 11.163 17.63 11.814h.2c.55.05 1.099.05 1.698.05 4.445 0 8.59-1.352 12.036-3.604 0 0 .05 0 .05-.05l.05-.05a22.704 22.704 0 0 0 7.641-8.76s0-.05.05-.05C44.251 29.582 45 26.379 45 22.975c0-3.504-.8-6.808-2.247-9.711-.1 0-.1-.05-.15-.1zm-1.249.8c1.448 3.104 1.049 6.909-1.198 10.763a20.815 20.815 0 0 1-2.548 3.504c-.899-2.753-.998-4.856-1.148-7.509-.1-1.902-.2-4.054-.6-6.807-.599-4.005-2.297-7.058-4.195-9.511a20.883 20.883 0 0 1 9.69 9.56zM28.818 3.354c2.348 2.653 4.845 6.057 5.594 10.862.4 2.653.5 4.755.6 6.608.15 2.853.25 5.356 1.498 8.66a25.137 25.137 0 0 1-2.997 2.552c-1.898-4.054-4.595-8.56-6.592-11.613-3.147-4.755-6.443-9.06-9.29-12.014-1.848-1.902-3.196-2.953-4.145-3.504 2.747-1.551 6.043-2.402 9.489-2.402 2.048 0 3.995.3 5.843.85zm-17.08 2.553c1.049-.4 6.792 4.605 13.884 15.367 3.047 4.605 5.194 8.56 6.593 11.663a30.909 30.909 0 0 1-3.347 1.953c-.15.05-.25.1-.4.2-1.498-2.503-4.194-3.654-7.54-5.056-.7-.3-1.449-.6-2.198-.951l-.4-.2c-4.445-1.953-12.635-5.657-14.733-12.515a20.461 20.461 0 0 1 8.14-10.461zm22.524 34.238c-2.347 1.552-4.994 2.653-7.89 3.104.898-.6 1.747-1.301 2.297-2.152.899-1.402 1.048-3.004.449-4.706.15-.05.3-.15.4-.2a23.02 23.02 0 0 0 3.246-1.902c1.498 3.354 1.898 5.456 1.498 5.856zM9.141 38.142c1.398.6 2.996 1.001 4.794 1.252.85.1 1.698.15 2.597.15 3.646 0 7.542-.851 11.337-2.503.4 1.201.3 2.253-.35 3.254-1.398 2.152-4.894 3.203-6.142 3.203-4.745-.4-8.99-2.352-12.236-5.356zM2.948 18.72c3.046 6.257 10.588 9.611 14.783 11.513l.4.2c.799.35 1.548.651 2.247.952 3.096 1.301 5.444 2.302 6.742 4.304-4.395 1.903-8.99 2.653-13.085 2.203-4.395-.5-7.691-2.453-9.29-5.406-1.398-2.853-2.247-6.057-2.247-9.461 0-1.502.15-2.953.45-4.305zM35.81 38.993c-.15-1.451-.799-3.404-1.698-5.556a30.536 30.536 0 0 0 2.997-2.503c.8 1.402 1.848 2.353 3.047 2.603.15.05.25.05.4.05-1.25 2.052-2.898 3.904-4.746 5.406zm5.644-7.158c-.25.25-.65.3-.999.25-.849-.15-1.648-1-2.197-2.252a26.287 26.287 0 0 0 3.246-4.305 18.74 18.74 0 0 0 1.898-4.605c.05.7.1 1.401.1 2.152-.05 3.104-.75 6.057-2.048 8.76z"/>
</svg>
