<svg xmlns="http://www.w3.org/2000/svg" width="44" height="50" viewBox="0 0 44 50">
    <path fill="#FFF" fill-rule="evenodd" d="M39.803.003a.944.944 0 0 0-.815.427L13.135 40.14c-.008.019-.015.024-.022.037l-.066.116h-.004c-.287.491-.872.806-1.639.76-.766-.047-1.546-.491-1.97-1.125-.424-.634-.438-1.295-.151-1.786l.085-.15c.735-1.261.61-2.844-.225-4.101a4.876 4.876 0 0 0-3.76-2.148c-1.518-.088-2.97.59-3.705 1.852l-.31.533a10.098 10.098 0 0 0 .04 10.223c1.865 3.166 5.294 5.118 8.993 5.139 3.7.019 7.121-1.918 8.963-5.073l.291-.493L43.869 3.279a.93.93 0 0 0-.343-1.286L40.253.127a.93.93 0 0 0-.45-.127v.003zm.284 2.195l1.668.953-.683 1.144-1.712-.98.727-1.117zM38.334 4.89l1.779 1.019-8.195 13.755-2.207-1.523L38.334 4.89zM28.685 19.71l2.27 1.567-12.93 21.706h-.004l-.291.5c-1.501 2.574-4.286 4.154-7.317 4.142-3.034-.018-5.846-1.618-7.372-4.21a8.233 8.233 0 0 1-.037-8.343l.313-.53c.349-.597 1.057-.97 1.952-.92.898.053 1.801.565 2.295 1.308.495.743.519 1.542.17 2.14l-.088.15c-.676 1.158-.552 2.61.214 3.755a4.463 4.463 0 0 0 3.431 1.957c1.384.084 2.712-.535 3.387-1.691l.06-.1 13.947-21.43zm6.266 16.699c-3.641 0-6.613 2.941-6.613 6.545S31.31 49.5 34.951 49.5c3.64 0 6.612-2.941 6.612-6.545S38.59 36.41 34.95 36.41zm0 1.87a4.74 4.74 0 0 1 2.546.738 6.472 6.472 0 0 0 0 7.87 4.741 4.741 0 0 1-5.092 0 6.477 6.477 0 0 0 .007-7.87 4.736 4.736 0 0 1 2.539-.738zm-3.897 2.027c1.102 1.58 1.097 3.675-.015 5.278a4.634 4.634 0 0 1-.811-2.63c0-.986.306-1.896.826-2.648zm7.797 0a4.63 4.63 0 0 1 .823 2.64c0 .98-.304 1.885-.82 2.634a4.612 4.612 0 0 1-.003-5.274z"/>
</svg>
