<svg xmlns="http://www.w3.org/2000/svg" width="44" height="44" viewBox="0 0 44 44">
    <path fill="#FFF" fill-rule="nonzero" d="M22 0C9.85 0 0 9.85 0 22s9.85 22 22 22 22-9.85 22-22S34.15 0 22 0zm18.25 12.75c.05 1.15-.25 2.7-.5 3.65a24.27 24.27 0 0 0-5.45-1.35c-2.2-3.35-4.85-6.25-5.75-7.15l.85-3.65c.95-.05 2.15-.1 2.75 0 3.5 2 6.3 4.95 8.1 8.5zM23.05 37.6c-3.65-.45-7.05-2.05-7.95-2.5-.35-.95-1.6-4.45-2.1-8.15l6.25-5.4 9 2.95c1.05 3.25 1.45 6.45 1.55 7.45-2.7 2.85-5.9 5.1-6.75 5.65zM5 23c-.65-3.5-.1-7.2.05-8.05 2.65-3.05 5.7-5.15 6.6-5.7 2.45.7 5.15 1.85 6.15 2.3l.5 8.9L12 25.8c-3.85-1.35-6.2-2.4-7-2.8zM27.5 8.9c.85.9 3.45 3.75 5.55 6.9-.5 1-2 4.05-4.45 7.2l-8.85-2.85-.5-8.65c1.2-.5 4.55-1.75 8.25-2.6zm3.35 24.15c.95.25 3.15.8 5.7.9-.25 1-.75 2.8-1.9 4.2-2.4 1.9-5.25 3.25-8.35 3.9-.85-1.1-1.65-2.6-2.1-3.4 1.15-.8 4.05-2.9 6.65-5.6zm7.3.55c1.1-1.1 2.05-2.4 2.75-3.6-.8 1.85-1.8 3.55-3.05 5.05.15-.65.25-1.15.3-1.45zm-1.05-1.1c-2.5-.05-4.85-.6-5.8-.85-.15-1.2-.55-4.35-1.6-7.6 2.5-3.25 4.1-6.3 4.65-7.45 2.55.35 4.65 1.1 5.35 1.4.35.85 1.4 3.8 1.5 7.85-.25.65-1.6 4.2-4.1 6.65zM24.05 1.6c2.3.4 3.55 1.6 4 2.15l-.9 3.75c-4.1.9-7.6 2.3-8.65 2.75-.9-.4-3.6-1.6-6.2-2.35.05-.85.3-2.65 1.05-4.4 2.6-1.3 5.55-2 8.65-2 .7 0 1.35.05 2.05.1zm-12.7 2.9c-.45 1.5-.55 2.85-.6 3.5-1 .65-3.85 2.6-6.5 5.6l-.65-.55C5.3 9.5 8 6.55 11.35 4.5zm-8.4 9.95l.55.45c-.2 1.25-.65 4.9.05 8.5-.25.55-.85 2-1.3 4.05-.5-1.75-.75-3.55-.75-5.45 0-2.65.5-5.2 1.45-7.55zm.35 15.9c.25-2.7 1-4.85 1.4-5.85 1.05.5 3.3 1.45 6.75 2.7.45 3.45 1.55 6.65 2.05 8.05-1.05.45-3.35 1.25-5.75 1.45-1.85-1.75-3.4-3.95-4.45-6.35zm5.95 7.7c2.35-.4 4.4-1.2 5.2-1.55 1.05.5 4.45 2.1 8.25 2.6.3.65 1.05 2 1.9 3.25-.85.1-1.7.15-2.6.15-4.8 0-9.25-1.65-12.75-4.45zm33.25-15.2c-.4-2.85-1.1-4.85-1.4-5.5.1-.35.25-.95.4-1.7.65 2 1 4.15 1 6.35v.85z"/>
</svg>
