<svg xmlns="http://www.w3.org/2000/svg" width="44" height="44" viewBox="0 0 44 44">
    <g fill="#FFF" fill-rule="nonzero">
        <path d="M18.313 42.967c.678-.163 1.36-.34 2.05-.545 4.874-1.46 9.892-4.018 13.966-8.096 4.076-4.075 6.631-9.087 8.093-13.964.205-.687.383-1.37.544-2.053 1.83-7.63 1.034-14.538-.852-16.422C40.229 0 33.32-.795 25.688 1.032c-.68.165-1.36.341-2.051.545-4.875 1.46-9.891 4.018-13.965 8.096-4.075 4.075-6.633 9.089-8.092 13.965-.208.688-.384 1.37-.547 2.052-1.83 7.63-1.032 14.54.855 16.424 1.884 1.885 8.794 2.682 16.425.853zM40.817 3.185c1.229 1.226 1.94 6.924.585 13.56L27.254 2.598c6.639-1.353 12.337-.642 13.563.587zm-29.845 7.784c4.164-4.164 9.319-6.585 14.183-7.874l15.75 15.751c-1.29 4.864-3.709 10.017-7.874 14.183-4.165 4.163-9.323 6.585-14.185 7.875L3.094 25.154c1.293-4.863 3.714-10.02 7.878-14.185zM2.599 27.252l14.15 14.15c-6.637 1.352-12.337.64-13.563-.588-1.23-1.226-1.94-6.926-.587-13.562z"/>
        <path d="M21.488 29.333l-2.73-2.728 2.73-2.73 2.728 2.73 1.365-1.365-2.73-2.73 2.73-2.727 2.73 2.728 1.363-1.365-2.73-2.728 2.73-2.73-1.363-1.362-2.73 2.727-2.73-2.727-1.363 1.362 2.728 2.73-2.728 2.728-2.73-2.728-1.363 1.365 2.728 2.728-2.728 2.73-2.73-2.73-1.363 1.364 2.728 2.73-2.728 2.728 1.363 1.365 2.73-2.73 2.728 2.73z"/>
    </g>
</svg>
