<svg xmlns="http://www.w3.org/2000/svg" width="46" height="46" viewBox="0 0 46 46">
    <g fill="#FFF" fill-rule="nonzero">
        <path d="M25.444 24.838a3.84 3.84 0 0 0-5.537-.32c-1.613 1.487-1.753 4.051-.31 5.723.03.031.06.061.084.092.49-2.969 2.856-5.228 5.763-5.495zM31.311 18.971c-1.442-1.662-3.921-1.81-5.534-.32-1.617 1.487-1.756 4.051-.314 5.719.025.035.056.065.085.097.489-2.97 2.856-5.229 5.763-5.496zM39.133 11.154c-1.442-1.668-3.92-1.819-5.538-.32-1.612 1.485-1.751 4.048-.31 5.714.03.026.056.065.085.096.493-2.974 2.857-5.227 5.763-5.49zM16.644 29.733c-1.439-1.67-3.92-1.82-5.533-.32-1.617 1.488-1.758 4.045-.314 5.717.025.03.056.061.084.092.494-2.97 2.86-5.23 5.763-5.489zM15.667 22.885a3.834 3.834 0 0 0-5.538-.32c-1.613 1.486-1.752 4.05-.31 5.717.03.025.055.066.085.096.493-2.977 2.857-5.23 5.763-5.493zM21.533 16.042c-1.442-1.667-3.92-1.815-5.536-.325-1.616 1.495-1.753 4.052-.31 5.729.026.025.06.061.084.087.489-2.97 2.856-5.224 5.762-5.491zM30.333 10.176c-1.439-1.668-3.92-1.816-5.533-.325-1.617 1.492-1.758 4.052-.314 5.727.026.025.057.062.085.089.492-2.97 2.857-5.224 5.762-5.491zM12.733 15.064c-1.446-1.667-3.92-1.815-5.537-.324-1.615 1.492-1.752 4.052-.31 5.718.03.035.056.07.085.098.489-2.97 2.856-5.224 5.762-5.492zM20.556 7.246a3.826 3.826 0 0 0-5.537-.325c-1.613 1.491-1.753 4.05-.314 5.715.03.03.06.07.09.097.487-2.972 2.856-5.229 5.76-5.487z"/>
        <path stroke="#FFF" stroke-width=".5" d="M45 22.999C45 35.15 35.147 45 23 45 10.85 45 1 35.15 1 22.999 1 10.847 10.85 1 23 1c12.146 0 22 9.847 22 21.999zm-2.897 0c0-10.553-8.556-19.102-19.104-19.102-10.55 0-19.106 8.55-19.106 19.102C3.893 33.548 12.45 42.1 23 42.1c10.547 0 19.104-8.552 19.104-19.101z"/>
    </g>
</svg>
