<svg xmlns="http://www.w3.org/2000/svg" width="44" height="43" viewBox="0 0 44 43">
    <g fill="#FFF" fill-rule="nonzero">
        <path d="M42.046.314a3.364 3.364 0 0 0-2.49-.139 3.296 3.296 0 0 0-1.961 1.665L19.98 36.535h-9.33c-1.828 0-3.317 1.457-3.317 3.233 0 1.775 1.49 3.232 3.317 3.232h14.047l18.97-38.26c.811-1.651.089-3.635-1.62-4.426zM40.042 1.48a1.805 1.805 0 0 1 1.37.084c.988.458 1.4 1.623.929 2.594l-.442.902-3.258-2.012.31-.61c.206-.458.59-.791 1.09-.958zm1.208 4.842l-.693 1.401-3.346-1.914.767-1.512L41.25 6.32zM23.754 41.613H10.65a1.848 1.848 0 0 1-1.843-1.845c0-1.013.826-1.845 1.843-1.845h10.274L36.578 7.07l3.346 1.928-16.17 32.615z"/>
        <path d="M7.162 35c2.115-.07 4.13-.697 6.02-1.868l.324-.209v-6.257c.085-.251.113-.488.113-.656 0-1.979-3.426-3.01-6.81-3.01C3.427 23 0 24.031 0 26.01c0 .182.028.363.085.53H.07v6.383l.325.21A12.026 12.026 0 0 0 6.795 35h.367zM6.81 24.394c3.355 0 5.4 1.045 5.4 1.616 0 .753-1.41 1.617-5.4 1.617-3.356 0-5.4-1.045-5.4-1.617 0-.571 2.044-1.616 5.4-1.616zm-5.33 7.763v-4.21c1.311.712 3.328 1.06 5.33 1.06 2.157 0 3.834-.25 4.976-.739.113-.042.212-.097.31-.153v4.014c-1.579.906-3.256 1.394-4.99 1.45a10.21 10.21 0 0 1-5.626-1.422z"/>
    </g>
</svg>
