<svg xmlns="http://www.w3.org/2000/svg" width="109" height="32" viewBox="0 0 109 32">
    <g fill="#FFF" fill-rule="nonzero">
        <path d="M63.522 8.384l-5.563 7.53-5.478-7.48h-5.406l8.47 11.634L47 31.772h5.396l5.567-7.485L63.6 31.75H69l-8.582-11.677 8.545-11.704zM97 8.443v23.329h4.432v-1.328-11.938c0-3.632 1.795-5.533 5.307-5.614H109V8.424c-2.898-.074-5.747-.364-8.25 1.765l-.126-1.746H97z"/>
        <path d="M89.022 11.4V8.775H93v22.551h-3.855v-2.719c-3.446 2.858-7.162 3.821-11.318 2.723-2.771-.722-5.175-2.405-6.758-4.732-3.246-4.658-2.617-10.904 1.496-14.86 3.547-3.443 10.385-5.291 16.457-.338zm-7.938 15.749c2.617 0 5.035-1.358 6.343-3.562a6.956 6.956 0 0 0 0-7.125c-1.308-2.204-3.726-3.562-6.343-3.562-4.045 0-7.324 3.19-7.324 7.124 0 3.935 3.28 7.125 7.324 7.125zM37.191 27.277c-3.005-.406-5.838-2.939-6.072-5.768H50c-.218-1.455-.32-2.774-.619-4.044-1.444-6.096-6.616-9.674-13-9.02-5.838.586-10.236 5.261-10.376 11.083-.15 5.116 3.087 9.758 8.053 11.549 4.791 1.702 11.089.177 14.144-3.476l-2.725-3.206c-2.405 2.022-5.056 3.318-8.286 2.882zm.167-14.935c3.636-.188 6.886 2.221 7.27 5.453H31.132c.035-2.72 2.99-5.287 6.227-5.453zM11.502 5.075c3.052-.003 6.009 1.162 8.356 3.293L23 4.936c-6.59-6.277-16.41-6.277-23 0l3.142 3.432c2.348-2.132 5.307-3.297 8.36-3.293z"/>
        <path d="M13.886 13.456L17 10.401a9.873 9.873 0 0 0-12 0l3.114 3.055a5.474 5.474 0 0 1 5.772 0zM16 15.49c.385.725.586 1.527.587 2.34v12.924H21V17.83a9.061 9.061 0 0 0-1.81-5.39L16 15.489zM2 17.836v12.918h4.403V17.836A5.012 5.012 0 0 1 7 15.493L3.784 12.44A9.09 9.09 0 0 0 2 17.836zM11.06 16.553c-1.186.21-2.054 1.264-2.06 2.5.003.123.015.247.035.37.163 1.101 1.005 1.966 2.078 2.133.128.024.257.037.387.04a2.489 2.489 0 0 0 1.516-.532c.396-.31.692-.736.848-1.222a2.927 2.927 0 0 0 .136-.785c-.004-1.238-.873-2.293-2.06-2.504-.29-.06-.59-.06-.88 0z"/>
    </g>
</svg>
