<svg xmlns="http://www.w3.org/2000/svg" width="130" height="48" viewBox="0 0 130 48">
    <g fill="#FFF" fill-rule="evenodd">
        <path d="M55.944 9.406A5.108 5.108 0 0 0 53.968 9a4.963 4.963 0 0 0-2.992 1.003 4.842 4.842 0 0 0-1.594 2.023c-.34.808-.453 1.69-.339 2.622.173 1.39.787 2.474 1.876 3.312 1.088.837 2.284 1.163 3.659.999a5.139 5.139 0 0 0 2.036-.686l-3.573-3.499 2.708-.329 2.423 2.364c.686-1.014.942-2.14.782-3.425-.114-.919-.437-1.731-.959-2.418a4.9 4.9 0 0 0-2.051-1.56"/>
        <path d="M58.014 20.072c-.93.68-2.014 1.103-3.225 1.258-1.954.25-3.712-.243-5.224-1.46-1.514-1.218-2.4-2.834-2.633-4.804a7.617 7.617 0 0 1 .493-3.784 7.007 7.007 0 0 1 2.22-2.972 6.877 6.877 0 0 1 3.399-1.398c1.96-.247 3.712.242 5.221 1.455 1.51 1.215 2.396 2.854 2.635 4.871.125 1.048.054 2.048-.211 2.973a7.54 7.54 0 0 1-1.178 2.346l2.499 2.557-2.65.337-1.346-1.38zM69 0l-7.265 7.516-21.69-7.47 7.243 7.494L40 30l7.234-7.483 21.72 7.436-7.21-7.46L69 0zM121.465 10v6.45c0 1.335.69 2.002 2.07 2.002h5V10H130v10.455c0 2.363-1.09 3.545-3.273 3.545h-4.8v-1.422h4.519c1.392 0 2.089-.76 2.089-2.283v-.48h-5.262c-2.182 0-3.273-1.049-3.273-3.145V10h1.465zM118 6v1.242h-1.042c-.972 0-1.458.488-1.458 1.465v1.669h2.417v1.323H115.5V21H114V8.667c0-1.778.882-2.667 2.646-2.667H118zM111 9h2V6h-2zM111 21h2V10h-2zM106.613 7v3.44H109v1.315h-2.387V21h-1.542v-9.245H103v-1.316h2.07V7zM97.727 10c2.181 0 3.273 1.173 3.273 3.52V21h-1.466v-7.227c0-1.49-.697-2.235-2.088-2.235h-4.98V21H91V10h6.727zM86.647 10C88.882 10 90 11.173 90 13.52v3.96c0 2.348-1.118 3.52-3.353 3.52H82.86c-1.907 0-2.86-.97-2.86-2.907v-.865c0-1.63.906-2.444 2.716-2.444h4.959v1.244h-4.568c-1.11 0-1.667.484-1.667 1.453v.506c0 1.124.563 1.686 1.688 1.686H86.4c1.4 0 2.1-.745 2.1-2.234v-3.772c0-1.447-.68-2.17-2.038-2.17H80.33V10h6.317z"/>
        <path d="M68.474 10v7.221c0 1.505.694 2.259 2.082 2.259h2.888c1.401 0 2.102-.754 2.102-2.259V10H77v7.474C77 19.825 75.903 21 73.707 21h-3.414C68.097 21 67 19.825 67 17.474V10h1.474zM92.646 34C94.882 34 96 35.172 96 37.52v3.96c0 2.348-1.118 3.52-3.354 3.52h-3.785C86.953 45 86 44.03 86 42.093v-.865c0-1.63.905-2.444 2.717-2.444h4.958v1.243h-4.568c-1.111 0-1.666.485-1.666 1.454v.506c0 1.124.562 1.686 1.687 1.686H92.4c1.4 0 2.1-.746 2.1-2.235v-3.771c0-1.447-.68-2.171-2.037-2.171H86.33V34h6.316zM82 32h2v-3h-2zM83 34v10.954c0 2.03-.746 3.046-2.238 3.046H80v-1.433h.535c.854 0 1.281-.59 1.281-1.775V34H83zM74.727 34C76.91 34 78 35.172 78 37.52V45h-1.466v-7.228c0-1.49-.696-2.234-2.089-2.234h-4.98V45H68V34h6.727zM64 32h2v-3h-2zM64 45h2V34h-2zM52.636 30l7.906 12.226V30H62v15h-1.32l-8.222-12.575V45H51V30zM33 6h-8v27c3.603-2.36 6.235-5.115 8-7.345V6zM25 48h8V35c-2.7 1.852-5.383 3.26-8 4.31V48zM12 41.483V48h8v-8a35.226 35.226 0 0 1-8 1.483M20 34.382V14h-8v23a31.004 31.004 0 0 0 8-2.618M8 38.922V25H0v13.586c2.865.411 5.529.501 8 .336M0 40v8h8v-6.75A35.253 35.253 0 0 1 0 40"/>
    </g>
</svg>
