<svg xmlns="http://www.w3.org/2000/svg" width="70" height="48" viewBox="0 0 70 48">
    <g fill="#FFF" fill-rule="evenodd">
        <path d="M3.278 30.668H.022V7.078h3.256zM46.963 30.668h-3.256V7.459h3.256zM70 30.668h-3.141L55.692 12.946l-.094.028v17.694h-3.141V7.459h3.141l11.167 17.708.094-.029V7.46H70z"/>
        <g>
            <path d="M6.168 44.704c0-.445-.172-.818-.516-1.126-.345-.301-.954-.56-1.822-.775-1.076-.25-1.915-.61-2.525-1.097-.602-.48-.903-1.09-.903-1.822 0-.774.322-1.413.975-1.93.653-.515 1.492-.774 2.532-.774 1.119 0 2.008.294 2.668.883.66.588.982 1.276.96 2.058l-.02.043h-1.37c0-.56-.208-1.019-.632-1.384-.423-.366-.954-.545-1.613-.545-.667 0-1.184.15-1.542.451a1.467 1.467 0 0 0-.538 1.177c0 .43.193.789.588 1.068.387.287 1.025.538 1.9.753 1.07.259 1.88.639 2.439 1.134.56.502.84 1.118.84 1.85 0 .796-.338 1.434-1.012 1.915-.674.48-1.55.724-2.632.724-1.026 0-1.93-.265-2.711-.796-.782-.53-1.162-1.248-1.14-2.137l.014-.043h1.37c0 .617.25 1.097.76 1.427a3 3 0 0 0 1.707.502c.681 0 1.219-.143 1.613-.423.41-.265.61-.645.61-1.133z"/>
            <path fill-rule="nonzero" d="M10.32 43.592c0-1.047.316-1.908.947-2.582.632-.674 1.485-1.018 2.568-1.018 1.09 0 1.95.337 2.59 1.011.63.674.946 1.535.946 2.59v.143c0 1.054-.316 1.915-.947 2.589-.631.667-1.492 1.004-2.575 1.004-1.09 0-1.943-.337-2.582-1.011-.63-.675-.946-1.535-.946-2.582v-.144zm1.428.144c0 .746.18 1.37.53 1.857.352.488.876.732 1.571.732.682 0 1.205-.244 1.557-.732.351-.487.53-1.104.53-1.857v-.144c0-.739-.179-1.355-.537-1.85-.359-.495-.883-.739-1.571-.739-.681 0-1.205.244-1.556.739-.352.495-.531 1.104-.531 1.85v.144h.007z"/>
            <path d="M21.186 47.336V41.04H19.96v-.983h1.226v-.925c0-.774.223-1.377.66-1.8.438-.423 1.055-.638 1.836-.638.165 0 .33.014.495.035.165.022.352.058.56.108l-.172 1.011a3.318 3.318 0 0 0-.703-.072c-.416 0-.725.115-.933.345-.2.23-.308.566-.308 1.004v.925h1.427v.983h-1.427v6.304h-1.435zM29.944 38.507v1.686h1.491v.946h-1.491v4.246c0 .33.079.56.23.689.15.136.358.2.609.2.079 0 .172-.007.28-.028a2.69 2.69 0 0 0 .258-.065l.193.875a1.343 1.343 0 0 1-.473.194 2.63 2.63 0 0 1-.617.072c-.58 0-1.047-.158-1.391-.466-.344-.316-.517-.804-.517-1.47v-4.247h-1.248v-.946h1.248v-1.686h1.428zM37.087 44.675l.165.94h.036l.172-.94 1.406-4.647h1.025l1.413 4.647.18 1.047h.035l.208-1.047 1.04-4.647h1.342l-2.037 7.308h-1.033l-1.391-4.447-.266-1.162h-.036l-.244 1.162-1.377 4.447h-1.032l-2.044-7.308h1.334z"/>
            <path fill-rule="nonzero" d="M51.948 47.193a7.905 7.905 0 0 1-.1-.56 5.595 5.595 0 0 1-.044-.488 2.98 2.98 0 0 1-.918.847 2.3 2.3 0 0 1-1.219.337c-.717 0-1.27-.187-1.642-.56-.38-.372-.567-.889-.567-1.542 0-.667.265-1.19.803-1.57.531-.38 1.263-.567 2.173-.567h1.37v-.688c0-.41-.122-.732-.373-.976-.244-.236-.595-.358-1.047-.358-.409 0-.739.1-.99.308-.25.208-.38.452-.38.746l-1.19.014-.015-.036c-.028-.509.208-.975.703-1.398.502-.423 1.148-.631 1.937-.631.782 0 1.413.2 1.893.602.474.402.717.983.717 1.743v3.37c0 .252.015.496.036.725.029.23.072.46.144.689h-1.291v-.007zm-2.087-.933c.451 0 .867-.122 1.233-.358.366-.237.603-.51.717-.818v-1.14H50.4c-.51 0-.911.129-1.22.387-.3.258-.459.56-.459.91 0 .31.094.56.287.74.201.186.48.28.854.28z"/>
            <path d="M61.171 41.254l-.731-.043c-.38 0-.696.086-.954.251a1.637 1.637 0 0 0-.603.696v5.17H57.45v-7.236h1.284l.136 1.055c.222-.373.495-.667.825-.875a2.07 2.07 0 0 1 1.133-.316c.107 0 .208.007.308.021.1.015.18.036.237.05l-.2 1.227z"/>
            <path fill-rule="nonzero" d="M67.34 47.329c-1.012 0-1.801-.323-2.375-.961-.566-.646-.853-1.485-.853-2.532v-.287c0-1.004.294-1.836.875-2.496.588-.66 1.298-.982 2.144-.982.947 0 1.65.294 2.123.875.473.58.71 1.355.71 2.323v.675h-4.511l-.022.036c0 .702.158 1.269.467 1.706.315.438.788.66 1.434.66a3.29 3.29 0 0 0 1.148-.186c.33-.122.61-.294.846-.51l.502.825c-.251.244-.588.445-.997.61-.409.158-.91.244-1.492.244zm-.202-6.261c-.444 0-.817.172-1.111.516-.294.344-.474.782-.538 1.313l.014.035h3.184v-.1c0-.51-.129-.932-.38-1.262-.25-.337-.645-.502-1.169-.502z"/>
            <path d="M27.527.05c.007 1.026.021 2.051.028 3.077.495-.043 1.19-.079 2.03-.057 1.234.036 2.03.057 2.883.322 2.475.768 3.687 3.049 3.844 3.357a6.905 6.905 0 0 1 .732 2.575l.022 7.817c-.022 3.436-2.862 6.118-6.412 6.233a6.515 6.515 0 0 1-6.455-6.268l-3.213-.008c-.029 5.15 4.217 9.324 9.517 9.389 5.3.064 9.575-4.045 9.604-9.195l-.022-7.818c.036-1.807-.445-3.127-.767-3.83-1.263-2.775-3.665-4.016-4.555-4.475-.53-.272-1.362-.696-2.524-.91-.624-.116-1.334-.137-2.726-.173A57.872 57.872 0 0 0 27.527.05z"/>
            <path d="M21.351 29.772l-.129-2.955c-.48.064-1.162.122-1.986.086-1.299-.065-3.68-.18-5.458-1.872-1.578-1.506-1.887-3.493-1.958-4.31l-.094-7.725c.223-3.443 3.02-6.118 6.269-6.19 2.933-.064 5.637 2.009 6.39 5.014 1.062.007 2.116.014 3.177.014-.136-.84-.652-3.421-2.919-5.544-2.703-2.532-5.945-2.59-6.749-2.582-4.21.057-8.018 2.919-9.173 6.311-.15.438-.287.976-.401 3.041a59.832 59.832 0 0 0 .2 9.138c.23 1.119.832 3.141 2.54 4.891 3.894 4.017 9.84 2.783 10.291 2.683z"/>
        </g>
    </g>
</svg>
