<svg xmlns="http://www.w3.org/2000/svg" width="170" height="31" viewBox="0 0 170 31">
    <g fill="none" fill-rule="evenodd">
        <path stroke="#FFF" stroke-linecap="round" d="M24.212 12.718h-9.247c-.435 0-.789-.375-.789-.836v-9.8c0-.462.354-.836.789-.836h9.247c.435 0 .788.374.788.835v9.801c0 .461-.353.836-.788.836z"/>
        <path fill="#FFF" d="M17.368 7.73c-.203 0-.368-.21-.368-.468v-.56c0-.258.165-.468.368-.468h3.97c.202 0 .368.21.368.467v.561c0 .258-.166.468-.368.468h-3.97z"/>
        <path stroke="#FFF" stroke-linecap="round" d="M11.035 12.718H1.788c-.435 0-.788-.375-.788-.836v-9.8c0-.462.353-.836.788-.836h9.247c.435 0 .789.374.789.835v9.801c0 .461-.354.836-.789.836z"/>
        <g fill="#FFF">
            <path d="M8.338 7.315h-3.97c-.203 0-.368-.199-.368-.442v-.53c0-.244.165-.443.368-.443h3.97c.202 0 .368.199.368.442v.53c0 .244-.166.443-.368.443"/>
            <path d="M5.784 8.523v-3.99c0-.204.198-.37.44-.37h.53c.243 0 .442.166.442.37v3.99c0 .203-.199.37-.442.37h-.53c-.242 0-.44-.167-.44-.37"/>
        </g>
        <path stroke="#FFF" stroke-linecap="round" d="M24.212 26.684h-9.247c-.435 0-.789-.374-.789-.836v-9.8c0-.462.354-.836.789-.836h9.247c.435 0 .788.374.788.836v9.8c0 .462-.353.836-.788.836zM11.035 26.684H1.788c-.435 0-.788-.374-.788-.836v-9.8c0-.462.353-.836.788-.836h9.247c.435 0 .789.374.789.836v9.8c0 .462-.354.836-.789.836z"/>
        <path fill="#FFF" d="M7.141 22.583L4.4 19.676a.397.397 0 0 1 0-.538l.305-.324a.346.346 0 0 1 .508 0l2.742 2.908c.14.148.14.39 0 .538l-.305.323a.346.346 0 0 1-.508 0"/>
        <path fill="#FFF" d="M4.399 21.721l2.742-2.906a.345.345 0 0 1 .508 0l.305.323c.14.147.14.39 0 .538l-2.743 2.907a.345.345 0 0 1-.508 0L4.4 22.26a.399.399 0 0 1 0-.539"/>
        <path stroke="#FFF" stroke-linecap="round" stroke-width=".7" d="M17.47 18.593h2.766c.55 0 1 .498 1 1.108 0 .61-.45 1.109-1 1.109h-1.835"/>
        <path stroke="#FFF" stroke-linecap="round" stroke-width=".7" d="M18.318 20.81h2.008c.5 0 .91.598.91 1.33 0 .731-.41 1.33-.91 1.33h-2.855M18.307 18.593v4.877M19.144 23.913v.887M19.98 23.913v.887M19.144 17.706v.887M19.98 17.706v.887"/>
        <path fill="#FFF" d="M45.626 2.263c2.613 0 4.641.717 6.084 2.15 1.443 1.434 2.244 3.062 2.403 4.885h-2.726c-.31-1.384-.925-2.481-1.848-3.29-.923-.81-2.218-1.215-3.885-1.215-2.033 0-3.675.744-4.925 2.23-1.251 1.488-1.876 3.767-1.876 6.838 0 2.516.564 4.556 1.693 6.121 1.129 1.565 2.813 2.348 5.052 2.348 2.06 0 3.63-.824 4.707-2.472.571-.868.998-2.009 1.279-3.422h2.726c-.244 2.262-1.05 4.158-2.417 5.69-1.64 1.842-3.85 2.763-6.633 2.763-2.398 0-4.412-.755-6.042-2.267C37.073 20.624 36 17.537 36 13.364c0-3.169.806-5.767 2.417-7.795 1.742-2.204 4.145-3.306 7.209-3.306zM57.443 8.67h2.403v2.705c.197-.526.68-1.168 1.448-1.923.768-.756 1.653-1.134 2.655-1.134.047 0 .127.005.24.015.112.01.304.03.575.058v2.78a3.638 3.638 0 0 0-.414-.06 5.418 5.418 0 0 0-.415-.014c-1.274 0-2.253.427-2.936 1.28a4.579 4.579 0 0 0-1.026 2.947v9.01h-2.53V8.669zM76.357 8.67h2.797a951.845 951.845 0 0 0-2.375 6.873 349.973 349.973 0 0 1-2.305 6.582c-1.461 3.998-2.491 6.435-3.091 7.313-.6.878-1.63 1.316-3.091 1.316a5.83 5.83 0 0 1-.823-.043 6.274 6.274 0 0 1-.71-.161V28.15c.441.127.76.205.956.234.197.03.37.044.52.044.469 0 .813-.08 1.033-.241.22-.161.405-.359.555-.593.047-.078.216-.478.506-1.2.29-.72.501-1.257.632-1.608L65.397 8.669h2.866l4.033 12.754L76.357 8.67zM81.15 8.742h2.458v2.077c.506-.711 1.059-1.262 1.658-1.652.853-.585 1.855-.878 3.007-.878 1.705 0 3.153.68 4.343 2.04 1.19 1.36 1.784 3.303 1.784 5.829 0 3.412-.857 5.85-2.571 7.313-1.087.926-2.352 1.39-3.794 1.39-1.134 0-2.085-.26-2.853-.776-.45-.293-.95-.795-1.504-1.506v8H81.15V8.742zm6.547 13.822c1.18 0 2.162-.514 2.944-1.543s1.174-2.567 1.174-4.615c0-1.248-.174-2.32-.52-3.217-.656-1.726-1.855-2.59-3.598-2.59-1.751 0-2.95.913-3.597 2.736-.347.975-.52 2.213-.52 3.715 0 1.209.173 2.238.52 3.086.656 1.619 1.855 2.428 3.597 2.428zM97.857 4.296h2.557V8.67h2.403v2.15h-2.403v10.224c0 .546.178.911.534 1.097.197.107.525.16.984.16a7.26 7.26 0 0 0 .885-.044v2.078c-.29.087-.592.15-.906.19a8.283 8.283 0 0 1-1.019.058c-1.18 0-1.981-.314-2.403-.943-.421-.629-.632-1.446-.632-2.45V10.82h-2.038V8.67h2.038V4.296zM111.417 8.216c1.94 0 3.579.673 4.918 2.018 1.34 1.346 2.01 3.325 2.01 5.938 0 2.526-.59 4.612-1.77 6.26-1.181 1.648-3.013 2.472-5.495 2.472-2.07 0-3.715-.729-4.932-2.187-1.218-1.457-1.827-3.415-1.827-5.872 0-2.633.642-4.729 1.925-6.289 1.283-1.56 3.007-2.34 5.171-2.34zm-.098 14.421c1.677 0 2.827-.66 3.45-1.982.623-1.321.934-2.79.934-4.41 0-1.462-.225-2.652-.674-3.568-.712-1.443-1.94-2.165-3.682-2.165-1.546 0-2.67.614-3.373 1.843-.702 1.229-1.053 2.71-1.053 4.446 0 1.668.35 3.057 1.053 4.169.703 1.111 1.818 1.667 3.345 1.667zM127.155 8.216c1.696 0 3.075.429 4.139 1.287 1.063.858 1.702 2.335 1.918 4.432h-2.46c-.15-.966-.491-1.768-1.025-2.406-.534-.639-1.391-.958-2.572-.958-1.61 0-2.763.819-3.456 2.457-.45 1.063-.675 2.374-.675 3.934 0 1.57.319 2.891.956 3.964.637 1.072 1.64 1.609 3.007 1.609 1.049 0 1.88-.334 2.494-1.002.614-.668 1.038-1.582 1.272-2.743h2.459c-.281 2.077-.984 3.596-2.108 4.556s-2.562 1.441-4.314 1.441c-1.967 0-3.536-.748-4.707-2.245-1.171-1.497-1.757-3.366-1.757-5.61 0-2.749.642-4.889 1.925-6.42 1.284-1.53 2.918-2.296 4.904-2.296zM143.807 14.841c.58-.078.97-.331 1.166-.76.113-.234.169-.57.169-1.01 0-.896-.307-1.547-.92-1.952-.614-.405-1.492-.607-2.635-.607-1.321 0-2.258.37-2.81 1.112-.31.41-.511 1.019-.605 1.828h-2.36c.046-1.93.648-3.274 1.805-4.03 1.157-.755 2.499-1.133 4.026-1.133 1.77 0 3.209.351 4.314 1.053 1.096.702 1.644 1.794 1.644 3.276v9.024c0 .273.054.493.162.659.107.165.335.248.681.248a3.7 3.7 0 0 0 .38-.022c.14-.014.29-.036.45-.065v1.945c-.394.117-.694.19-.9.22-.206.028-.487.043-.843.043-.871 0-1.504-.322-1.897-.965-.206-.342-.351-.824-.436-1.448-.515.702-1.255 1.311-2.22 1.828-.965.517-2.028.775-3.19.775-1.396 0-2.536-.441-3.421-1.323-.886-.883-1.328-1.987-1.328-3.313 0-1.453.435-2.58 1.306-3.379.872-.8 2.015-1.292 3.43-1.477l4.032-.527zm-6.127 5.324c0 .76.267 1.36.801 1.8.534.438 1.167.657 1.897.657.89 0 1.752-.214 2.586-.643 1.405-.712 2.108-1.877 2.108-3.496v-2.12c-.31.204-.708.375-1.195.511a9.825 9.825 0 0 1-1.433.293l-1.532.205c-.918.126-1.606.326-2.065.6-.778.458-1.167 1.189-1.167 2.193zM151.817 2.848h2.53v21.486h-2.53zM163.944 8.216c1.695 0 3.075.429 4.138 1.287 1.063.858 1.703 2.335 1.918 4.432h-2.46c-.149-.966-.49-1.768-1.025-2.406-.534-.639-1.391-.958-2.571-.958-1.612 0-2.764.819-3.457 2.457-.45 1.063-.675 2.374-.675 3.934 0 1.57.319 2.891.956 3.964.637 1.072 1.64 1.609 3.007 1.609 1.05 0 1.88-.334 2.494-1.002.614-.668 1.038-1.582 1.272-2.743H170c-.281 2.077-.984 3.596-2.108 4.556s-2.562 1.441-4.314 1.441c-1.967 0-3.536-.748-4.707-2.245-1.171-1.497-1.757-3.366-1.757-5.61 0-2.749.642-4.889 1.925-6.42 1.284-1.53 2.919-2.296 4.905-2.296z"/>
    </g>
</svg>
