<svg xmlns="http://www.w3.org/2000/svg" width="170" height="37" viewBox="0 0 170 37">
    <g fill="#FFF" fill-rule="evenodd">
        <path fill-rule="nonzero" d="M52.268 17.956c0 .582-.22.831-.708.831H38.726v-3.12h12.702c.62 0 .84.29.84.623v1.666zm.222-3.83H37v8.366h1.726v-1.957h14.073c.886 0 1.284-.832 1.284-1.414v-3.747c0-1.208-1.062-1.248-1.593-1.248zM71.643 20.332c0 .284-.295.515-.661.515H58.827c-.366 0-.663-.23-.663-.515v-4.23c0-.283.297-.514.663-.514h12.155c.366 0 .661.23.661.514v4.23zm.857-6.236H57.307a.822.822 0 0 0-.829.814v6.672c0 .45.372.813.829.813H72.5a.82.82 0 0 0 .83-.813V14.91a.822.822 0 0 0-.83-.814zM91.037 18.037c0 .5-.221.75-.797.75H77.45v-3.08h12.79c.531 0 .797.25.797.666v1.664zm.797 2.499c.22-.043.885-.333.885-1.332v-3.497c0-1-.443-1.581-1.328-1.581H75.68v8.366h1.727v-2h12.48l.973 1.916h2.035l-1.061-1.872z"/>
        <path d="M111.792 14.04v1.667H98.207c-.576 0-.665.374-.665.624v.54s-.044.584.576.584h12.347c1.15 0 1.418.874 1.418 1.332v2.247c0 1.084-.842 1.416-1.463 1.416H95.86v-1.622h13.545c.617 0 .752-.25.752-.584v-.707c0-.51-.887-.416-1.24-.416H97.144c-1.017 0-1.283-.71-1.283-1.291v-2.622c0-.75.752-1.125 1.505-1.125.752 0 14.426-.043 14.426-.043M131.001 14.083v1.54h-13.497c-.62 0-.751.416-.751.79v3.665c0 .584.174.75.616.75h13.587v1.58h-14.562c-1.236 0-1.371-.79-1.371-1.498v-5.745c0-1.125 1.064-1.125 1.417-1.125.354 0 14.561.043 14.561.043M148.143 14v3.455h-12.761V14h-1.726v8.506h1.726v-3.428h12.76v3.428h1.725V14zM169.592 15.666v-1.625h-17.04v8.41h17.04v-1.623h-15.314v-1.833h15.314v-1.622h-15.314v-1.707z"/>
        <g>
            <path d="M14.512.1c4.984 0 8.523.605 14.374 1.92l-1.589 20.614c-.289 5.9-5.923 10.804-12.785 14.287-6.863-3.483-12.497-8.388-12.786-14.287L.137 2.02C5.988.705 9.527.1 14.512.1zm0 .57C8.588.67 3.243 1.912.75 2.517l.266 3.525c6.38-1.57 10.172-1.82 13.495-1.82 3.322 0 7.115.25 13.494 1.82l.266-3.525C25.78 1.913 20.435.669 14.512.669zm13.02 11.205l.313-4.079-13.044-.073v3.98h5.128v.172h7.602zm-7.603 3.808l-.012 3.913 7.008.021.313-3.955-7.309.02zm-2.09 9.042l-.082.166c-.154.332-.164.504-.114 1.061.144-.085.433-.185.621-.256.043-.327.934-1.872 2.15-1.912.115 0 .086.086 0 .142-.088.057-1.054.627-1.186 1.465.145-.043 1.023-.185 1.095-.2.058-.213.56-1.037 1.369-1.108.1 0-.033.152.014.113-.323.268-.54.535-.621.9.144-.015.64.02.74.05.101-.128.623-.451 1.355-.356.1 0 .074.095 0 .128-.1.044-.632.1-.705.398 1.093.587 1.236 1.272 1.308 1.727.014.114-.058.114-.145.043-.086-.071-.901-1.178-2.022-1.237-.992-.052-3.231.534-4.703 1.3-.014.442-.126.5-.346.5a.4.4 0 0 1-.3-.133c-.067.05-.126.04-.217.04-.22 0-.362-.175-.362-.392 0-.162.063-.278.206-.337a.314.314 0 0 1-.015-.096.401.401 0 0 1 .602-.337c.05.024.324.003.353-.218.01-.105 0-.311.17-.8l.015-.143c-.632.314-1.37.52-2.218.557v10.314c5.056-2.63 10.98-7.002 11.846-12.617l.257-3.34-6.975.02v.69c0 1.156-.679 2.8-2.09 3.868zm-3.616 2.72V25.79c-1.979-.089-3.364-1.086-4.191-2.262l-7.648.009c.221 1.382.748 2.687 1.492 3.91l10.347-.002zm-6.9 4.014c2.106 1.875 4.593 3.436 6.9 4.636v-4.651l-6.9.015zm7.189-19.061h-4.84V20.5c0 2.204 1.878 4.727 4.84 4.727 2.961 0 4.84-2.523 4.84-4.727v-8.103h-4.84zm-5.418-.569h5.129V4.831c-2.863.041-6.755.195-13.153 1.844l1.006 12.944 7.018-.002v-2.396c-.197-.152-.5-.398-1.402-.397-.534 0-2.047.496-2.928 1.558-.012.372-.229.51-.414.51-.1 0-.191-.043-.253-.111a.318.318 0 0 1-.198.064.334.334 0 0 1-.337-.331c0-.137.1-.265.22-.315a.266.266 0 0 1-.012-.08.337.337 0 0 1 .508-.284c.041.02.176.109.2-.077.018-.198-.007-2.055 1.002-2.336.11-.024.073.06.024.108-.048.048-.494.806-.435 1.763.122-.072.386-.267.545-.327.048-.204.398-1.75 1.232-1.765.098 0 .073.072 0 .12s-.436.47-.51 1.226c.122-.036.427-.087.488-.099.048-.18.408-1.215 1.09-1.275.086 0 .05.086.013.122-.037.036-.398.53-.47 1.013.122-.012.405-.003.49.02.073-.092.652-.717 1.147-.921l.001-2.106c-.095-.085-.243-.175-.698-.176-.712-.002-1.902.287-3.543 1.343-.016.496-.305.681-.553.681a.45.45 0 0 1-.336-.15.424.424 0 0 1-.265.086.445.445 0 0 1-.448-.44c0-.184.132-.354.293-.42a.356.356 0 0 1-.017-.109c0-.243.2-.44.448-.44.084 0 .163.022.23.061.055.027.282.123.315-.125.024-.263.436-2.472 1.817-2.664.147-.032.098.08.033.144-.065.064-1.142.933-1.062 2.209.162-.096.659-.333.87-.413.065-.272.676-1.93 1.788-1.95.13 0 .098.095 0 .159-.097.064-.775.533-.872 1.54.162-.047.664-.163.746-.179.065-.24.496-1.194 1.407-1.274.113 0 .065.116.016.164s-.531.375-.627 1.018c.093-.01.29.025.46.06l-.003-.597z"/>
            <path d="M16.653 29.971c-.011.353-.101.4-.277.4a.32.32 0 0 1-.24-.107c-.053.04-.1.032-.173.032-.176 0-.29-.14-.29-.313 0-.13.05-.223.165-.27a.252.252 0 0 1-.012-.077.32.32 0 0 1 .482-.27c.039.02.259.003.282-.174.017-.187.412-1.596 1.395-1.733.104-.023.069.057.023.103.078-.078-.844.645-.771 1.451.116-.068.455-.183.605-.24.035-.262.838-1.445 1.81-1.476.092 0 .07.068 0 .113-.07.046-.915.484-1.02 1.154.115-.034.691-.148.749-.16.046-.17.656-.92 1.366-.904.08 0-.026.122.011.09-.258.215-.739.481-.804.773a3.24 3.24 0 0 1 .593.04c.08-.102.534-.396 1.12-.32.08 0 .06.077 0 .103-.08.035-.452.15-.51.39.632.366.88.75.938 1.115.011.09-.046.09-.116.034-.07-.057-.739-.694-1.636-.741-.793-.042-2.512.374-3.69.987M16.337 32.403c-.008.24-.123.29-.244.29a.219.219 0 0 1-.163-.072c-.037.028-.07.022-.12.022-.12 0-.197-.096-.197-.215 0-.089.034-.152.113-.184a.171.171 0 0 1-.009-.053.22.22 0 0 1 .33-.184c.027.013.177.001.193-.12.012-.128.077-1.115.683-1.22.071-.016.047.039.016.07.053-.053-.36.417-.257 1.002.08-.047.23-.1.333-.138.024-.18.248-1.006.913-1.028.063 0 .047.047 0 .078-.048.031-.328.322-.4.78.09-.046.315-.081.404-.109.032-.116.512-.753.998-.743.055 0-.018.084.008.062-.177.147-.416.382-.46.582.079-.008.268-.015.324 0a.687.687 0 0 1 .657-.263c.056 0 .041.052 0 .07a.459.459 0 0 0-.24.285c.466.222.665.416.705.665.008.062-.032.062-.08.023a2.121 2.121 0 0 0-1.082-.356c-.543-.028-1.605.263-2.425.756M10.503 18.673c.045-.134.19-.293.207-.373.018-.08-.009-.143.045-.223.055-.08.208-.23.262-.284.054-.053.244-.133.343.08.1.213.271.684.614.826-.135.072-.46.187-.632.223-.171.035-.307.062-.234.48.072.417.09.595.063.728a.666.666 0 0 0 .216.64l.226.31c.09.08.307.17.325-.008.018-.178.072-.356-.108-.373-.063-.01-.235-.152-.217-.311a.698.698 0 0 0-.1-.427.576.576 0 0 1-.062-.417c.036-.134.135-.214.36-.17.181.063 1.012.285 1.265.01.171.124 1.192.497 1.788.435.108.186.334.595.478.71.118.107.163.445-.036.623-.117.089-.424.4-.677.47-.253.072-.352.116-.47.232-.117.115-.19.115-.261.266-.073.151-.235.418.027.418s.334-.125.352-.196c.018-.07 0-.222.1-.248.098-.027.405-.045.613-.294.208-.248.623-.382.786-.408.162-.027.18-.187.162-.267-.018-.08-.027-.284.072-.39.145.035.605.133.822.426.036.08.045.124.081.177-.063.107-.19.205-.234.311-.046.107-.1.285-.307.445-.208.16-.389.257-.488.4a.702.702 0 0 0-.144.488c.018.196.072.098.162.098.09 0 .298-.098.307-.231.009-.133-.054-.196.135-.276.19-.08.524-.346.596-.515.073-.169.29-.498.461-.595.171-.098.135-.24.054-.382-.081-.142-.361-.524-.307-.773.054-.25.352-.4.443-.782.09-.382.036-.56-.019-.693.154-.045.244-.01.443.08.199.089.65.07.704-.054.054-.124.036-.373 0-.426.127-.107.217-.338.145-.444a.487.487 0 0 1-.073-.391c-.126-.018-.261-.125-.171-.205.09-.08.27-.266.19-.506.027-.151.036-.338-.226-.329-.01-.098-.09-.417-.497-.124-.063.044-.135-.054-.045-.08.09-.027.56-.178.632-.338.072-.16.045-.24.018-.302.036-.071.072-.213.036-.267-.036-.053-.18-.044-.28.196-.099.24-.072.24-.334.284-.262.045-.46 0-.632.285-.054.07-.081.15-.207.222a.433.433 0 0 0-.217.284c-.018.098.072.276.054.4-.018.124-.09.39.244.675.162.178.406.409.226.587-.181.177-.344-.01-.479-.098-.135-.089-.578-.222-.867-.205-.289.018-1.237-.213-1.463-.4-.225-.186-.087-.28.028-.337a.315.315 0 0 0 .18-.16c.045-.089.117-.107.199-.107.081 0 .162-.017.234-.186.073-.169.145-.107.226-.125.081-.017.136-.186-.009-.24-.144-.053-.226-.106-.217-.16.01-.053.109-.168.244-.177.136-.009.145-.098.136-.169-.01-.07 0-.115.09-.16.09-.044.081-.15-.072-.195-.154-.045-.38-.098-.38-.17 0-.07.1-.195.2-.23.099-.036.144-.187-.082-.178-.226.009-.352.036-.397-.106-.045-.143-.055-.223.18-.311.1-.027.127-.16-.054-.151-.18.008-.388.097-.451.035-.064-.062-.046-.115-.01-.142.037-.027.046-.116-.045-.116-.09 0-.442.134-.532.036-.09-.098-.235-.151-.352-.08-.118.071-.118.178-.055.24.064.062-.018.16-.09.098-.072-.063-.045-.107-.045-.134 0-.026-.054-.115-.117-.15-.064-.036-.064-.134-.046-.196.018-.062-.054-.125-.162-.062-.108.062-.208.168-.154.328-.117.01-.415.08-.424.17-.009.088.036.186.018.221-.018.036-.117.036-.172.071-.153.151-.415.294-.478.356s-.108.124-.19.222c-.081.089-.088.19-.054.24.1.142.18.044.235.124.054.08.054.098.045.142-.009.045.1.142.262.01.162-.134.28-.276.406-.125.127.151.01.24-.045.338-.108.106-.361.435-.478.533-.118.097-.208.328-.253.542-.045.213-.1.257-.145.31-.216-.08-.46-.177-.596-.284-.09-.07-.289-.16-.415.018-.063.071-.388.506-.47.693-.08.187-.207.115-.207.47 0 .125-.1.179-.154.374-.009.053-.153.382-.009.444.145.063.316-.017.352-.106.037-.089.046-.364.055-.462M4.652 10.567c-.018.551-.34.757-.614.757a.5.5 0 0 1-.374-.166.47.47 0 0 1-.295.095.494.494 0 0 1-.498-.49.53.53 0 0 1 .326-.466.393.393 0 0 1-.019-.12c0-.271.223-.49.498-.49.094 0 .18.025.255.068.061.03.314.137.35-.138.027-.293.425-2.906 1.96-3.119.162-.035.108.089.036.16-.072.071-1.264 1.013-1.12 2.612.18-.106.813-.409 1.048-.497.054-.409.65-2.31 1.986-2.346.145 0 .108.107 0 .178-.108.07-.92.71-1.03 1.83.181-.053.76-.142.85-.16.072-.266.632-1.564 1.643-1.653.126 0 .072.09.018.143-.054.053-.777.657-.777 1.368.181-.018.687-.018.813.018.126-.16.668-.747 1.445-.8.126 0 .072.089 0 .16-.073.071-.542.48-.632.853.27.142 1.047.658 1.137 1.226.018.142-.072.142-.18.053-.109-.088-.94-.746-1.987-.746-1.047 0-3.015.498-4.84 1.67M12.536 3.304v.41l-.624.03v-.36c0-.36-.201-.585-.54-.562l-1.724.11.017.982-.621.029-.069-2.453 2.589-.17c.474-.038.89.058.889.697 0 .183-.067.368-.167.534.13.1.253.366.25.753zM11.48 2.286c.128-.01.233-.07.226-.2-.006-.13-.066-.181-.21-.185l-1.873.097.008.39 1.849-.102zM1.473 5.45l-.18-2.47 2.573-.57c.325-.07.786-.026.804.543.018.568-.09.808-.497.897l-2.158.48.081.978-.623.142zm.488-2.053l.018.364 1.797-.39c.153-.036.18-.16.171-.24-.007-.062-.072-.152-.252-.116-.181.036-1.734.382-1.734.382zM5.058 2.686c0-.23-.009-.568.632-.666l2.086-.338c.253-.044.821.125.821.587l.028 1.19c.009.25-.01.578-.687.676l-1.932.302c-.343.062-.903.009-.921-.631l-.027-1.12zm.632.276l.018.666c.018.276.163.267.38.231l1.58-.249c.261-.044.315-.23.315-.346l-.018-.729c0-.169-.18-.293-.352-.266l-1.598.266c-.334.062-.325.24-.325.427 0 .186 0 0 0 0zM13.861 2.225a.215.215 0 0 1-.217-.214c0-.118.098-.214.217-.214h2.547v-.532h-2.845c-.144 0-.632.03-.627.755.004.724.52.737.627.737h1.996c.12 0 .217.096.217.214s-.097.195-.217.195h-2.546V3.7h2.835c.18 0 .654.027.654-.742 0-.768-.532-.733-.654-.733H13.86M20.868 1.567l-.153 2.523.596.08.072-1.084 2.095.391-.073 1.03.596.107.154-2.514-.587-.107-.063.978-2.095-.391.054-.924-.596-.09M24.561 4.694l.145-2.487 2.871.595-.036.506-2.267-.47-.018.461 2.249.471-.036.507-2.249-.471-.027.506 2.24.471-.046.507-2.826-.596M20.3 2.073l.026-.55-2.645-.205c-.226-.018-.66-.036-.695.693l-.055 1.057c-.009.25.145.667.623.702l2.637.196.027-.551-2.203-.16c-.208-.009-.433-.071-.415-.444l.018-.533c.009-.214.08-.41.424-.383l2.257.178"/>
        </g>
    </g>
</svg>
