<svg xmlns="http://www.w3.org/2000/svg" width="150" height="38" viewBox="0 0 150 38">
    <g fill="none" fill-rule="evenodd">
        <path d="M-10-10h170v58H-10z"/>
        <path fill="#FFF" fill-rule="nonzero" d="M34.592 11.49L25.84 30.997h-3.494l9.21-20.53c1.078.176 2.1.522 3.036 1.023zM19.286.033L5.824 30.046C2.39 28.409 0 24.827 0 20.663c0-5.707 4.477-10.335 10-10.335C10 4.871 14.098.413 19.286.032v.001zM30 10.33L20.732 31h-3.789L28.585 5.045a10.541 10.541 0 0 1 1.417 5.283h.002L30 10.33zm3.447 20.026l5.935-13.234c.39 1.106.617 2.296.617 3.543 0 4.452-2.732 8.237-6.553 9.69h.001zm2.621-17.892a10.353 10.353 0 0 1 2.156 2.333l-7.247 16.15c-.323.033-.648.051-.978.051h-2.25l8.314-18.533h.005zM20.038 0a9.692 9.692 0 0 1 3.985.875L10.509 31h-.508c-1.254 0-2.45-.25-3.561-.687L20.038 0zm7.755 3.865L15.618 30.997h-4.083L24.858 1.302a10.137 10.137 0 0 1 2.935 2.56v.003zM51.458 25.603c1.112 1.27 2.81 2.224 4.596 2.23 1.673.007 2.849-1.052 2.854-2.516.01-2.585-3.617-2.915-6.233-4.505-1.532-.923-2.754-2.307-2.747-4.576.013-3.587 3.229-5.646 6.464-5.627 1.982.01 3.821.503 5.657 1.914l-1.963 2.872c-.778-.745-2.087-1.325-3.371-1.334-1.423 0-3.014.628-3.02 2.175-.01 3.248 9.004 2.272 8.98 9.05-.01 3.567-3.117 6.023-6.633 6.013-2.62-.01-5.04-1.137-7.042-3.04l2.468-2.633-.01-.023zm20.93-2.218l7.422 7.695-4.882-.019-5.698-6.05-.021 6.03-3.627-.014.071-20.39 3.627.013-.038 10.971 4.675-4.486 5.098.02-6.632 6.235.006-.005zm10.55 14.6l3.767-8.285-6.012-12.547 3.99.016 3.933 8.373 3.683-8.344 3.821.013L86.725 38l-3.793-.015h.006zm27.38-9.634c-1.599 2.177-3.61 3.117-6.15 3.108-4.184-.016-7.241-3.243-7.228-7.264.01-4.05 3.173-7.254 7.3-7.24 2.344.01 4.43 1.136 5.679 2.807l-2.583 2.317c-.724-.979-1.81-1.672-3.116-1.677-2.096-.008-3.659 1.68-3.668 3.806-.01 2.182 1.515 3.797 3.725 3.805 1.477.006 2.65-.909 3.24-1.828l2.783 2.166h.017zm8.87-.283c2.12 0 3.577-1.682 3.584-3.78.008-2.098-1.437-3.829-3.556-3.839-2.122-.01-3.578 1.712-3.583 3.81-.01 2.098 1.435 3.79 3.556 3.8v.009zm.039-11.07c4.1.01 7.187 3.268 7.173 7.29-.015 4.022-3.122 7.222-7.224 7.212-4.1-.02-7.185-3.248-7.171-7.268.013-4.022 3.122-7.257 7.223-7.242l-.001.008zm13.842 14.262l-3.627-.015.048-13.926 3.628.014-.048 13.927zM131.33 10a2.357 2.357 0 0 1 2.363 2.392 2.36 2.36 0 0 1-2.38 2.378 2.36 2.36 0 0 1-2.363-2.394 2.357 2.357 0 0 1 2.38-2.374V10zm5.255 21.274l.047-13.926 3.488.013-.004 1.122c1.036-.857 2.32-1.397 3.827-1.392a6.032 6.032 0 0 1 4.679 2.258c.889 1.093 1.386 2.504 1.378 4.887l-.024 7.097-3.628-.013.026-7.381c.006-1.376-.3-2.098-.8-2.614-.472-.493-1.196-.783-2.033-.783-1.534-.01-2.792.996-3.297 1.711l-.033 9.046-3.626-.013v-.012z"/>
    </g>
</svg>
