<svg xmlns="http://www.w3.org/2000/svg" width="150" height="150" viewBox="0 0 150 150">
    <g fill="none" fill-rule="evenodd">
        <path fill="#28E5FF" d="M25.354 131.217L131.217 25.354C142.907 38.58 150 55.96 150 75c0 41.421-33.579 75-75 75-19.039 0-36.42-7.094-49.646-18.783zm-7.038-7.104C6.906 110.955 0 93.783 0 75 0 33.579 33.579 0 75 0c18.784 0 35.955 6.905 49.113 18.316L18.316 124.113z" opacity=".25"/>
        <g stroke="#FFF" stroke-linecap="round" stroke-linejoin="round" stroke-width="3">
            <path d="M76.462 99.78H27.5V41.626h12.24M91.857 41.625h11.759v28.223M45.887 41.625h39.555M27.5 59.37h76.115M27.5 72.84h60.188M27.5 86.311h49.176"/>
            <path d="M42.788 49.536a2.895 2.895 0 0 1-2.887-2.887V36.387a2.895 2.895 0 0 1 2.887-2.887 2.895 2.895 0 0 1 2.886 2.887v10.262a2.895 2.895 0 0 1-2.886 2.887zM88.756 49.536a2.895 2.895 0 0 1-2.887-2.887V36.387a2.895 2.895 0 0 1 2.887-2.887 2.895 2.895 0 0 1 2.887 2.887v10.262a2.895 2.895 0 0 1-2.887 2.887zM42.723 60.012v39.626M57.947 60.012v39.626M73.17 60.012v39.626M88.393 60.012V72.52M123.287 93.62c0 13.11-10.628 23.738-23.737 23.738-13.11 0-23.738-10.627-23.738-23.737 0-13.11 10.628-23.737 23.738-23.737 13.109 0 23.737 10.627 23.737 23.737z"/>
            <path d="M99.55 81.928V93.62l10.564 10.565M99.55 69.883v4.24M75.812 93.62h4.24M99.55 117.357v-4.24M123.287 93.62h-4.24"/>
        </g>
    </g>
</svg>
