<svg xmlns="http://www.w3.org/2000/svg" width="150" height="150" viewBox="0 0 150 150">
    <g fill="none" fill-rule="evenodd">
        <path fill="#28E5FF" d="M25.354 131.217L131.217 25.354C142.907 38.58 150 55.96 150 75c0 41.421-33.579 75-75 75-19.039 0-36.42-7.094-49.646-18.783zm-7.038-7.104C6.906 110.955 0 93.783 0 75 0 33.579 33.579 0 75 0c18.784 0 35.955 6.905 49.113 18.316L18.316 124.113z" opacity=".25"/>
        <path stroke="#FFF" stroke-linecap="round" stroke-linejoin="round" stroke-width="3" d="M101.213 79.367l18.536 30.737-93.249-.397 21.841-38.92c1.012-1.8 3.855-1.86 4.958-.102l1.831 2.919c1.065 1.699 3.787 1.715 4.878.029L77.025 47.32c1.102-1.703 3.857-1.666 4.901.065l14.807 24.552"/>
        <path stroke="#FFF" stroke-linecap="round" stroke-linejoin="round" stroke-width="3" d="M65.127 109.764l17.94-16.09c1.614-1.446 4.231-1.446 5.845 0l18.13 16.26-41.915-.17zM80.794 45.576V28.5h9.823v2.04h8.085l-3.627 3.627 3.438 3.438h-8.048v-2.078h-9.747M51.25 54.53a6.63 6.63 0 0 0 .227-1.7 6.649 6.649 0 1 0-12.811-2.493h-4.568a3.714 3.714 0 0 0-3.703 3.702c0 .21.03.414.063.615-1.726.476-3.009 2.047-3.009 3.919a4.092 4.092 0 0 0 4.08 4.08h19.343a4.092 4.092 0 0 0 4.08-4.08c0-2.115-1.637-3.848-3.703-4.042zM119.75 72.435h-.082a3.44 3.44 0 0 0 .265-1.32c0-1.844-1.462-3.349-3.282-3.45.054-.223.09-.454.09-.694a3.018 3.018 0 0 0-3.009-3.008h-3.253a3.017 3.017 0 0 0-3.008 3.008c0 .233.032.458.083.675h-2.999a3.48 3.48 0 0 0-3.469 3.47c0 .466.096.911.265 1.32h-5.177a3.14 3.14 0 0 0-3.13 3.13 3.14 3.14 0 0 0 3.13 3.131h23.575a3.14 3.14 0 0 0 3.131-3.13 3.14 3.14 0 0 0-3.13-3.132z"/>
        <path fill="#FFF" d="M62.547 69.834L48.214 91"/>
        <path stroke="#FFF" stroke-linecap="round" stroke-linejoin="round" stroke-width="3" d="M62.547 69.834L48.214 91"/>
    </g>
</svg>
