<svg xmlns="http://www.w3.org/2000/svg" width="150" height="150" viewBox="0 0 150 150">
    <g fill="none" fill-rule="evenodd">
        <path fill="#28E5FF" d="M25.354 131.217L131.217 25.354C142.907 38.58 150 55.96 150 75c0 41.421-33.579 75-75 75-19.039 0-36.42-7.094-49.646-18.783zm-7.038-7.104C6.906 110.955 0 93.783 0 75 0 33.579 33.579 0 75 0c18.784 0 35.955 6.905 49.113 18.316L18.316 124.113z" opacity=".25"/>
        <g stroke="#FFF" stroke-linecap="round" stroke-linejoin="round" stroke-width="3">
            <path d="M70.84 109.214H31.5V52.557M52.497 31.5h40.788v31.134M31.56 52.256h20.756V31.5z"/>
            <path d="M119.833 90.63c0 15.33-12.426 27.755-27.755 27.755-15.329 0-27.755-12.426-27.755-27.755 0-15.329 12.426-27.755 27.755-27.755 15.33 0 27.755 12.426 27.755 27.755z"/>
            <path d="M92.078 108.49a4.115 4.115 0 0 1-4.103-4.103v-14.48a4.115 4.115 0 0 1 4.103-4.105 4.116 4.116 0 0 1 4.103 4.104v14.48a4.115 4.115 0 0 1-4.103 4.103zM92.238 81.459h-.32a3.955 3.955 0 0 1-3.943-3.943 3.955 3.955 0 0 1 3.943-3.943h.32a3.954 3.954 0 0 1 3.943 3.943 3.954 3.954 0 0 1-3.943 3.943zM72.288 71.08H42.12a2.662 2.662 0 0 1-2.655-2.654 2.662 2.662 0 0 1 2.655-2.655h37.046M64.323 84.838H42.12a2.662 2.662 0 0 1-2.654-2.655 2.662 2.662 0 0 1 2.654-2.655h24.195M65.41 98.594H42.12a2.662 2.662 0 0 1-2.655-2.654 2.663 2.663 0 0 1 2.655-2.655h22.023"/>
        </g>
    </g>
</svg>
