<svg xmlns="http://www.w3.org/2000/svg" width="150" height="150" viewBox="0 0 150 150">
    <g fill="none" fill-rule="evenodd">
        <path fill="#28E5FF" d="M25.354 131.217L131.217 25.354C142.907 38.58 150 55.96 150 75c0 41.421-33.579 75-75 75-19.039 0-36.42-7.094-49.646-18.783zm-7.038-7.104C6.906 110.955 0 93.783 0 75 0 33.579 33.579 0 75 0c18.784 0 35.955 6.905 49.113 18.316L18.316 124.113z" opacity=".25"/>
        <g stroke="#FFF" stroke-linecap="round" stroke-linejoin="round" stroke-width="3">
            <path d="M109.257 107.32H40.743a8.243 8.243 0 0 1-8.243-8.243V50.743a8.243 8.243 0 0 1 8.243-8.243h68.514a8.242 8.242 0 0 1 8.243 8.243v48.334a8.242 8.242 0 0 1-8.243 8.243z"/>
            <path d="M39.187 91.813v-37.59a4.997 4.997 0 0 1 4.997-4.996h61.553a4.997 4.997 0 0 1 4.997 4.997v37.589H39.187zM62.26 98.046h47.698a1.222 1.222 0 1 1 0 2.445H62.26M55.33 100.491H40.653a1.221 1.221 0 1 1 0-2.445H55.33"/>
            <path d="M62.464 99.269a3.67 3.67 0 1 1-7.339-.001 3.67 3.67 0 0 1 7.339 0zM67.855 61.258V79.78c0 2.118 2.355 3.384 4.122 2.214l14.898-9.865c1.643-1.087 1.572-3.521-.13-4.511l-14.9-8.658c-1.77-1.028-3.99.249-3.99 2.297z"/>
        </g>
    </g>
</svg>
