<svg xmlns="http://www.w3.org/2000/svg" width="230" height="33" viewBox="0 0 230 33">
    <g fill="#FFF" fill-rule="evenodd">
        <path fill-rule="nonzero" d="M8.392 14.976l.727-7.763-7.11 4.362L0 29h6.836l.999-8.295h6.038a13.612 13.612 0 0 0 5.782-1.249c6.61-3.097 6.342-9.103 6.342-9.103.118-5.374-3.098-8.126-5.391-9.398A7.706 7.706 0 0 0 16.868 0H3.126l-.544 6.1h12.841A3.701 3.701 0 0 1 18.8 8.234a4.813 4.813 0 0 1-.147 4.307 4.424 4.424 0 0 1-3.014 2.325 5.038 5.038 0 0 1-1.105.111h-6.14zM45.847 4.126A4.632 4.632 0 0 0 44.765 4H30.632L28 30h5.876l.809-8.19h4.458L43.6 30h7.293l-5.487-9.413c3.342-.921 5.073-3.574 5.842-5.319.43-.98.68-2.03.737-3.101.3-5.717-4.405-7.622-6.139-8.04zm-2.96 12.18c-.258.056-.52.084-.783.082h-6.537l.608-7.166h6.63c1.688-.01 3.11 1.275 3.29 2.972.016.169.025.338.026.508 0 0 .184 2.839-3.225 3.603h-.01zM67.9 4C60.719 4 54.092 9.882 54 17.395 53.911 24.985 58.907 31 66.085 31S80 24.908 80 17.395C80.003 9.224 75.08 4 67.9 4zm-1.591 20.861c-3.954 0-6.517-3.39-6.481-7.416.035-4.026 3.726-7.323 7.664-7.323 3.937 0 6.652 2.994 6.652 7.336.017 3.976-3.882 7.407-7.835 7.407v-.004zM112 4.299S108.926-.597 99.016.06a15.11 15.11 0 0 0-4.76 1.09c-3.267 1.35-8.28 4.507-9.736 11.463-.05.229-.098.458-.154.684-.363 1.467-1.745 8.757 4.947 13.65a16.007 16.007 0 0 0 15.885 1.68 12.33 12.33 0 0 0 4.976-3.822l-3.748-4.152s-6.587 6.196-12.415 1.98c-2.542-1.833-3.486-5.183-3.052-8.291.366-2.62 1.598-5.767 5.123-7.516 2.6-1.29 5.618-1.44 8.332-.413a7.603 7.603 0 0 1 3.44 2.456L112 4.3zM129.805 4h-5.802L110 30h6.6l3.002-5.937h10.394L131.997 30H138l-8.195-26zm-7.988 15.15l4.402-8.392 2.4 8.393h-6.802zM143.222 4h6.25l5.37 10.85L162.557 4H169l-3.123 26h-5.762l2.049-16.583-8.298 11.055-6.053-11.055L145.47 30H140zM187.965 4.126A4.483 4.483 0 0 0 186.9 4h-13.91L170 30h5.978l.987-8.19h3.953c.287 0 .573-.012.858-.037l2.636-.216c2.482-.203 4.853-1.027 6.649-2.789a8.932 8.932 0 0 0 1.261-1.519c.375-.637.7-1.304.97-1.994.413-.985.648-2.04.693-3.111.31-5.694-4.319-7.599-6.02-8.018zm-2.912 12.18a3.467 3.467 0 0 1-.77.082h-6.415l.598-7.166h6.5c1.66-.01 3.059 1.275 3.235 2.972.017.169.025.338.026.508 0 0 .184 2.839-3.174 3.603zM194 26.785l4.048-3.885a10.525 10.525 0 0 0 7.106 3.06 5.499 5.499 0 0 0 2.15-.382c2.49-1 2.452-2.966 1.478-3.885a4.469 4.469 0 0 0-2.32-1.127c-3.27-.54-5.472-1.421-6.946-2.541-2.147-1.635-3.407-4.623-2.564-7.2.788-2.393 1.977-3.911 3.352-4.857a11.721 11.721 0 0 1 6.286-1.961c6.09-.178 9.41 3.321 9.41 3.321l-3.25 4.303s-6.388-4.468-9.615-1.344a2.223 2.223 0 0 0 .262 3.422c.738.509 1.924.99 3.824 1.311 1.501.267 2.946.79 4.273 1.548 3.073 1.748 4.354 5.55 2.974 8.828-.21.48-.454.945-.73 1.39a8.664 8.664 0 0 1-4.77 3.645c-1.817.557-4.426.874-7.865.142.003 0-5.132-1.194-7.103-3.788zM223.5 33c-3.605 0-6.5-3.117-6.5-7s2.895-7 6.5-7 6.5 3.117 6.5 7-2.945 7-6.5 7zm0-12.578c-2.844 0-5.18 2.515-5.18 5.578s2.336 5.578 5.18 5.578 5.18-2.515 5.18-5.578-2.336-5.578-5.18-5.578z"/>
        <path stroke="#FFF" stroke-width=".2" d="M223.8 27.348a3.066 3.066 0 0 1-.174.003h-1.113v1.799l-.1.1h-.863l-.1-.1v-6.3l.1-.1h2.076c1.365 0 2.161.83 2.161 2.251 0 .99-.36 1.722-1.023 2.085l1.099 2.016-.088.148h-.98l-.09-.056-.905-1.846zm-1.287-1.151h1.113c.752 0 1.143-.387 1.143-1.169 0-.753-.389-1.124-1.143-1.124h-1.113v2.293z"/>
    </g>
</svg>
