<svg xmlns="http://www.w3.org/2000/svg" width="44" height="44" viewBox="0 0 44 44">
    <path fill="#FFF" fill-rule="nonzero" d="M43.887 20.236a21.783 21.783 0 0 0-1.016-5.048c-.011-.023-.011-.039-.017-.058-.102-.304-.215-.61-.328-.91-.018-.054-.042-.11-.065-.168-.1-.268-.215-.533-.326-.802-.038-.075-.07-.16-.11-.246a32.49 32.49 0 0 0-.357-.757c-.048-.084-.086-.17-.13-.256a18.62 18.62 0 0 0-.535-.991 22.629 22.629 0 0 0-1.073-1.657c-.117-.162-.226-.32-.336-.472-.368-.49-.746-.968-1.144-1.417-.149-.166-.309-.32-.458-.483-.288-.304-.58-.603-.882-.891-.2-.188-.386-.379-.589-.554a26.314 26.314 0 0 0-1.295-1.059c-.085-.054-.153-.124-.236-.186l-1.34-.987-.007.093A21.988 21.988 0 0 0 21.947 0c-3.831 0-7.622 1.02-10.967 2.95C4.787 6.531.999 12.693.17 19.3l-.015.03-.019.185c-.02.165-.023.325-.04.489-.023.266-.04.544-.062.821-.011.229-.026.464-.029.693-.008.39-.008.785.003 1.187.01.247.023.494.037.734.017.269.045.533.069.792.033.349.076.693.129 1.05.04.26.08.522.13.783.044.23.084.454.141.682.084.413.192.815.303 1.223.046.179.107.356.16.533.11.347.224.693.351 1.035.046.126.09.255.14.381.171.455.369.901.572 1.35.058.118.117.231.173.354.224.457.46.928.723 1.377.268.463.556.92.856 1.358.142.202.288.405.436.607.152.204.306.417.468.624.207.262.418.517.627.772.103.117.205.224.306.342.265.297.54.585.825.871.011.013.028.026.046.049a21.853 21.853 0 0 0 4.402 3.37c.05.03.107.067.158.09.35.2.705.394 1.067.575.119.059.237.117.361.175.238.109.475.238.716.344l.171.075h.039A21.97 21.97 0 0 0 21.99 44c3.839 0 7.63-1.018 10.967-2.944 5.087-2.938 8.72-7.686 10.238-13.362a21.94 21.94 0 0 0 .744-6.495l.06.031-.113-.994zm-7.042-11.75l.392.447c.176.197.343.402.503.613.17.21.325.428.487.639.119.17.246.34.367.51.27.412.538.822.781 1.246.309.533.58 1.078.834 1.63.09.186.165.384.248.565.15.362.3.734.43 1.097a14.919 14.919 0 0 1 .423 1.358c.31 1.088-.461.727-.732.58a13.497 13.497 0 0 1-5.087-8.544c-.009-.033-.004-.051-.01-.084-.02-.136-.023-.262-.04-.391.046-.764.933-.149.989-.107.138.148.278.293.415.44zm-24.919-3.91a20.065 20.065 0 0 1 10.023-2.7c3.632 0 7.139.998 10.176 2.792.204.135 1.146.84 1.34 2.555.006.043.01.071.02.105.084 1.51.393 2.984.906 4.4.023.06.038.121.06.193.495 1.549-.489 2.07-.489 2.07l-5.584 3.22c-1.71.981-2.429-.387-2.429-.387l.011.045c-2.931-3.611-7.367-5.787-12.09-5.787-2.722 0-5.41.725-7.774 2.091-.116.065-.215.15-.333.22-.073.023-.195.082-.4.235-1.725 1.239-1.433-.207-1.33-.603 1.695-3.415 4.35-6.401 7.893-8.448zm1.908 35.797l-.592-.266c-.101-.05-.203-.102-.3-.142a31.064 31.064 0 0 1-1.005-.548c-.006 0-.009-.01-.012-.01a20.065 20.065 0 0 1-4.09-3.11c-.023-.034-.046-.045-.063-.074-.266-.255-.516-.532-.763-.802-.09-.093-.174-.195-.26-.296-.205-.23-.4-.473-.591-.715-.144-.182-.28-.368-.412-.558a14.282 14.282 0 0 1-.407-.567 20.97 20.97 0 0 1-.774-1.225 21.08 21.08 0 0 1-.854-1.672c-.073-.156-.133-.31-.2-.458a20.04 20.04 0 0 1-.52-1.343l-.147-.423a21.744 21.744 0 0 1-.456-1.65c-.007-.036-.019-.071-.026-.104a20.142 20.142 0 0 1-.468-3.767c-.003-.088 0-.174-.003-.267a19.79 19.79 0 0 1 .034-1.586c.005-.117.014-.22.023-.334.017-.198.05-.4.072-.601a13.638 13.638 0 0 1 11.848-6.892c4.882 0 9.436 2.628 11.87 6.866a13.573 13.573 0 0 1 1.37 10.396 13.604 13.604 0 0 1-6.381 8.33 13.66 13.66 0 0 1-6.823 1.82h-.068v-.002h-.002zm18.183-.948a20.123 20.123 0 0 1-9.578 2.684c-3.71.013-.766-1.927-.766-1.927 3.6-2.08 6.179-5.445 7.254-9.47.831-3.107.668-6.321-.405-9.288-.01-.042-.018-.078-.038-.126-.392-1.297.049-1.918.35-2.181l6.054-3.5c.21-.114 1.064-.46 2.087.653.038.043.068.071.102.098 1.067 1.282 2.344 2.356 3.77 3.24l-.033.01s1.251.98 1.235 2.65a19.936 19.936 0 0 1-.66 4.941c-1.396 5.188-4.721 9.532-9.372 12.216z"/>
</svg>
