<svg xmlns="http://www.w3.org/2000/svg" width="52" height="52" viewBox="0 0 52 52">
    <g fill="none" fill-rule="evenodd" stroke="#FFF" stroke-width="2">
        <path d="M24.554 15.2a8 8 0 0 1-11.313 0 7.998 7.998 0 0 1 0-11.312 7.998 7.998 0 0 1 11.313 0 8 8 0 0 1 0 11.313z"/>
        <path d="M11.038 8.654a7.978 7.978 0 0 1 6.444 2.305 7.985 7.985 0 0 1 2.233 6.986M27.496 10.327a7.992 7.992 0 0 1-7.185-2.197 7.978 7.978 0 0 1-2.326-6.177"/>
        <path d="M26.587 6.097l1.148-1.149c5.265-5.264 13.83-5.264 19.093 0 5.264 5.263 5.264 13.828 0 19.091l-8.485 8.486c-5.265 5.263-13.828 5.263-19.092 0-3.948-3.949-4.935-9.752-2.962-14.628"/>
        <path d="M21.57 16.947l-.708.805c-2.435 3.687-2.028 8.699 1.218 11.945a9.499 9.499 0 0 0 13.434 0L44 21.212A9.501 9.501 0 0 0 30.565 7.776l-3.89 3.89M16.201 27.797s.53 5.126-3.712 9.369M16.201 27.797s.53 5.126-3.712 9.369M23.98 35.575s-5.127-.53-9.37 3.712"/>
        <path d="M3.12 49.864l-1.444-1.443a2.31 2.31 0 0 1 0-3.266l7.93-7.931a2.311 2.311 0 0 1 3.267 0l1.443 1.444a2.308 2.308 0 0 1 0 3.265l-7.93 7.931a2.31 2.31 0 0 1-3.266 0zM45.767 19.444L32.424 6.101M41.79 23.422L28.446 10.079M37.813 27.398L24.47 14.055M33.835 31.376L20.492 18.033M22.216 29.652L44.09 7.778M19.464 24.626L39.052 5.038M27.121 32.48l19.587-19.587"/>
    </g>
</svg>
